<svg width="86" height="86" viewBox="0 0 86 86" fill="none" xmlns="http://www.w3.org/2000/svg">
<g clip-path="url(#clip0)">
<circle cx="43" cy="43" r="35.8333" fill="black"/>
<path d="M34.6962 56.5191C34.6962 56.7266 34.4635 56.8925 34.1702 56.8925C33.8365 56.9237 33.6038 56.7577 33.6038 56.5191C33.6038 56.3116 33.8365 56.1456 34.1298 56.1456C34.4332 56.1145 34.6962 56.2805 34.6962 56.5191ZM31.5506 56.0523C31.4798 56.2598 31.6821 56.4983 31.9855 56.5606C32.2485 56.6643 32.5519 56.5606 32.6126 56.3531C32.6733 56.1456 32.4811 55.9071 32.1777 55.8137C31.9147 55.7411 31.6214 55.8448 31.5506 56.0523ZM36.0211 55.8759C35.7278 55.9486 35.5255 56.1456 35.5559 56.3842C35.5862 56.5917 35.8492 56.7266 36.1526 56.6539C36.4459 56.5813 36.6482 56.3842 36.6179 56.1768C36.5875 55.9797 36.3144 55.8448 36.0211 55.8759ZM42.6763 16.125C28.6478 16.125 17.9166 27.0482 17.9166 41.4361C17.9166 52.9403 24.9764 62.7846 35.0603 66.2494C36.3549 66.4879 36.81 65.6684 36.81 64.9942C36.81 64.351 36.7797 60.8033 36.7797 58.6249C36.7797 58.6249 29.6997 60.1809 28.2129 55.5336C28.2129 55.5336 27.0599 52.5149 25.4012 51.7369C25.4012 51.7369 23.085 50.1083 25.563 50.1394C25.563 50.1394 28.0814 50.3469 29.4671 52.8158C31.6821 56.8199 35.3941 55.6685 36.8404 54.9838C37.073 53.3241 37.7304 52.1726 38.4587 51.488C32.8048 50.8448 27.1004 50.0046 27.1004 40.0254C27.1004 37.1727 27.869 35.7411 29.4873 33.9154C29.2244 33.2411 28.3646 30.4611 29.7503 26.8719C31.8642 26.1976 36.7291 29.6727 36.7291 29.6727C38.752 29.0918 40.9265 28.7909 43.0809 28.7909C45.2352 28.7909 47.4098 29.0918 49.4326 29.6727C49.4326 29.6727 54.2976 26.1872 56.4115 26.8719C57.7971 30.4714 56.9374 33.2411 56.6744 33.9154C58.2927 35.7515 59.2839 37.183 59.2839 40.0254C59.2839 50.0357 53.3266 50.8345 47.6728 51.488C48.6033 52.3075 49.3922 53.8635 49.3922 56.3012C49.3922 59.7971 49.3618 64.1228 49.3618 64.9734C49.3618 65.6477 49.8271 66.4672 51.1116 66.2286C61.2259 62.7846 68.0833 52.9403 68.0833 41.4361C68.0833 27.0482 56.7048 16.125 42.6763 16.125ZM27.7477 51.9029C27.6162 52.0067 27.6465 52.2452 27.8185 52.4423C27.9803 52.6083 28.2129 52.6809 28.3444 52.5461C28.4759 52.4423 28.4456 52.2037 28.2736 52.0067C28.1118 51.8407 27.8792 51.7681 27.7477 51.9029ZM26.6553 51.0627C26.5845 51.1975 26.6857 51.3635 26.888 51.4672C27.0498 51.571 27.2521 51.5399 27.3229 51.3946C27.3937 51.2598 27.2925 51.0938 27.0903 50.9901C26.888 50.9278 26.7261 50.9589 26.6553 51.0627ZM29.9324 54.7556C29.7705 54.8905 29.8312 55.2017 30.0638 55.3988C30.2965 55.6374 30.5898 55.6685 30.7213 55.5025C30.8528 55.3676 30.7921 55.0564 30.5898 54.8593C30.3673 54.6208 30.0638 54.5896 29.9324 54.7556ZM28.7793 53.2307C28.6175 53.3345 28.6175 53.6042 28.7793 53.8427C28.9412 54.0813 29.2142 54.1851 29.3457 54.0813C29.5076 53.9465 29.5076 53.6768 29.3457 53.4382C29.2041 53.1996 28.9412 53.0959 28.7793 53.2307Z" fill="white"/>
</g>
<defs>
<clipPath id="clip0">
<rect width="86" height="86" fill="white"/>
</clipPath>
</defs>
</svg>
