<svg width="86" height="86" viewBox="0 0 86 86" fill="none" xmlns="http://www.w3.org/2000/svg">
<circle cx="43" cy="43" r="35.8333" fill="#C7C7C7"/>
<g clip-path="url(#clip0)">
<path d="M61.4965 59.0539H22.5348C21.024 59.0539 19.7518 57.8179 19.7518 56.2629V28.0338C19.7518 26.5187 20.9843 25.2428 22.5348 25.2428H61.4965C63.0073 25.2428 64.2795 26.4788 64.2795 28.0338V56.2629C64.2795 57.8179 63.047 59.0539 61.4965 59.0539Z" fill="#E3E3E3"/>
<path opacity="0.1" d="M25.3178 59.0539L41.9759 45.6172L42.0952 44.8995L24.9202 32.4994L24.8805 58.4558L25.3178 59.0539Z" fill="#231F20"/>
<path d="M22.5348 59.0539C20.9843 59.0539 19.7518 57.8179 19.7518 56.2629V27.994C19.7518 26.439 20.9843 26.1599 22.5348 26.1599C24.0853 26.1599 25.3178 26.4788 25.3178 27.994V59.0539H22.5348Z" fill="#D54B3D"/>
<path d="M22.5348 26.5586C24.5227 26.5586 24.9202 27.1567 24.9202 27.994V58.6552H22.5348C21.2228 58.6552 20.1494 57.5787 20.1494 56.2629V27.994C20.1494 27.1168 20.547 26.5586 22.5348 26.5586ZM22.5348 26.1599C20.9843 26.1599 19.7518 26.4788 19.7518 27.994V56.2629C19.7518 57.8179 20.9843 59.0539 22.5348 59.0539H25.3178V27.994C25.3178 26.439 24.0853 26.1599 22.5348 26.1599Z" fill="#D72B27"/>
<path d="M61.4965 59.0539H58.7135V27.9142C58.7135 26.3592 59.946 26.1599 61.4965 26.1599C63.047 26.1599 64.2795 26.3592 64.2795 27.9142V56.3028C64.2795 57.8179 63.047 59.0539 61.4965 59.0539Z" fill="#D54B3D"/>
<path d="M61.4965 26.5586C63.2856 26.5586 63.8819 26.9174 63.8819 27.9142V56.3028C63.8819 57.6186 62.8085 58.6951 61.4965 58.6951H59.1111V27.9142C59.1111 26.8776 59.7075 26.5586 61.4965 26.5586ZM61.4965 26.1599C59.946 26.1599 58.7135 26.3592 58.7135 27.9142V59.0938H61.4965C63.047 59.0938 64.2795 57.8578 64.2795 56.3028V27.9142C64.2795 26.3592 63.047 26.1599 61.4965 26.1599Z" fill="#D72B27"/>
<path d="M49.5695 59.0539L19.9848 29.1534L21.5409 29.7882L42.1349 44.6603L64.2795 28.3753L64.2795 56.3028C64.2795 57.8179 63.047 59.0539 61.4965 59.0539H49.5695Z" fill="url(#paint0_linear)"/>
<path d="M41.9744 45.6169L20.9431 30.3062C19.7106 29.3892 19.3528 27.6348 20.2672 26.3988C21.1816 25.1628 22.9707 24.8837 24.2429 25.8008L42.0142 38.759L59.9048 25.6413C61.1372 24.7242 62.8865 25.0033 63.8009 26.2792C64.7153 27.5152 64.4371 29.2696 63.1648 30.1866L41.9744 45.6169Z" fill="#D54B3D"/>
<path d="M61.4952 25.482C62.2506 25.482 62.9662 25.8409 63.4433 26.4788C64.1987 27.5554 63.9602 29.0306 62.9265 29.8281L41.9746 45.1388L21.1818 29.9875C20.1084 29.1901 19.8301 27.675 20.5855 26.6383C21.0228 26.0402 21.7782 25.6415 22.5733 25.6415C23.0901 25.6415 23.607 25.801 24.0045 26.12L41.7361 39.0384L41.9746 39.1979L42.2132 39.0384L60.064 25.9206C60.5013 25.6415 60.9784 25.482 61.4952 25.482ZM61.4952 25.0833C60.9386 25.0833 60.3423 25.2428 59.8652 25.6017L41.9746 38.7194L24.2033 25.7611C23.7262 25.4023 23.1299 25.2428 22.5335 25.2428C21.6589 25.2428 20.7842 25.6415 20.2276 26.3991C19.353 27.6351 19.7108 29.3895 20.9433 30.3065L41.9746 45.6571L63.1253 30.1869C64.3577 29.2698 64.636 27.5554 63.7614 26.2795C63.2048 25.482 62.3699 25.0833 61.4952 25.0833Z" fill="#D72B27"/>
</g>
<defs>
<linearGradient id="paint0_linear" x1="19.9865" y1="43.7139" x2="64.2938" y2="43.7139" gradientUnits="userSpaceOnUse">
<stop stop-opacity="0.1"/>
<stop offset="1" stop-opacity="0.2"/>
</linearGradient>
<clipPath id="clip0">
<rect width="44.7917" height="34.0417" fill="white" transform="translate(19.7083 25.0833)"/>
</clipPath>
</defs>
</svg>
