<svg width="86" height="86" viewBox="0 0 86 86" fill="none" xmlns="http://www.w3.org/2000/svg">
<circle cx="43" cy="43" r="35.8333" fill="#0077B5"/>
<path fill-rule="evenodd" clip-rule="evenodd" d="M33.6381 25.592C33.6381 27.8227 31.9395 29.6281 29.2833 29.6281C26.7305 29.6281 25.0319 27.8227 25.0845 25.592C25.0319 23.2528 26.7304 21.5 29.3341 21.5C31.9395 21.5 33.5871 23.2528 33.6381 25.592ZM25.2981 58.8008V32.8165H33.3736V58.7991H25.2981V58.8008Z" fill="white"/>
<path fill-rule="evenodd" clip-rule="evenodd" d="M39.8463 41.1091C39.8463 37.868 39.7395 35.105 39.6327 32.82H46.647L47.0199 36.3797H47.1793C48.2421 34.7321 50.8984 32.2368 55.2022 32.2368C60.5148 32.2368 64.5 35.744 64.5 43.3924V58.8043H56.4244V44.4043C56.4244 41.0549 55.2565 38.7715 52.3341 38.7715C50.1016 38.7715 48.7744 40.3124 48.2438 41.799C48.0302 42.3312 47.9251 43.0737 47.9251 43.8195V58.8043H39.8495V41.1091H39.8463Z" fill="white"/>
</svg>
