<svg width="86" height="86" viewBox="0 0 86 86" fill="none" xmlns="http://www.w3.org/2000/svg">
<ellipse cx="43" cy="43" rx="35.8333" ry="35.8333" fill="#47CF73"/>
<g clip-path="url(#clip0)">
<path d="M60.5695 25.9788C55.8776 21.7166 49.6292 19.3724 42.9888 19.3724C29.2825 19.3724 18.1294 29.4799 18.1294 41.9012C18.1294 45.8691 19.2716 49.7457 21.444 53.1656L17.9167 64.8359L31.0966 61.7002C34.7247 63.4964 38.812 64.4402 42.9776 64.4402H42.9888C56.6839 64.4402 68.0833 54.3326 68.0833 41.9113C68.0833 35.8935 65.2615 30.241 60.5695 25.9788V25.9788ZM42.9888 60.6448C39.2711 60.6448 35.6318 59.7416 32.4628 58.0367L31.7125 57.6308L23.8964 59.4879L25.9792 52.577L25.4865 51.8666C23.4148 48.8831 22.3286 45.4429 22.3286 41.9012C22.3286 31.5806 31.6005 23.1779 43 23.1779C48.5206 23.1779 53.7052 25.1264 57.6021 28.6681C61.499 32.2098 63.8953 36.9083 63.8841 41.9113C63.8841 52.2421 54.3771 60.6448 42.9888 60.6448V60.6448ZM54.3211 46.6201C53.7052 46.3359 50.6482 44.9761 50.0771 44.7934C49.506 44.6006 49.0917 44.5093 48.6773 45.0776C48.263 45.6459 47.076 46.9042 46.7065 47.2898C46.3482 47.6653 45.9786 47.7161 45.3628 47.4319C41.7122 45.7778 39.3159 44.4788 36.9083 40.7342C36.2701 39.7397 37.5466 39.8107 38.7336 37.6593C38.9352 37.2838 38.8344 36.9591 38.6776 36.6749C38.5208 36.3908 37.2779 33.6203 36.7628 32.4939C36.2589 31.3979 35.7437 31.5501 35.363 31.5298C35.0047 31.5095 34.5904 31.5095 34.176 31.5095C33.7617 31.5095 33.0898 31.6516 32.5187 32.2098C31.9477 32.778 30.3464 34.1379 30.3464 36.9083C30.3464 39.6788 32.5747 42.3579 32.8771 42.7333C33.1906 43.1088 37.2555 48.7918 43.4927 51.2375C47.4344 52.78 48.9797 52.9119 50.9505 52.6481C52.1487 52.4857 54.6234 51.2882 55.1385 49.9689C55.6536 48.6497 55.6536 47.5233 55.4969 47.2898C55.3513 47.0361 54.937 46.8941 54.3211 46.6201Z" fill="white"/>
</g>
<defs>
<clipPath id="clip0">
<rect width="50.1667" height="51.9583" fill="white" transform="translate(17.9167 16.125)"/>
</clipPath>
</defs>
</svg>
